<svg version="1.1" id="Layer_1" xmlns="http://www.w3.org/2000/svg" xmlns:xlink="http://www.w3.org/1999/xlink" x="0px" y="0px"
	 width="100%" viewBox="0 0 214 148" enable-background="new 0 0 214 148" xml:space="preserve">
<path fill="none" opacity="1.000000" stroke="#000000" stroke-linecap="round" stroke-linejoin="round" stroke-width="4.000000"
	d="
M85.500000,35.500000 
	C83.333336,35.500000 81.166664,35.497925 79.000000,35.500401 
	C73.318695,35.506893 72.507523,36.291870 72.504723,42.000004 
	C72.493347,65.166664 72.500000,88.333336 72.500000,111.500000 
	C72.500000,115.333336 72.532654,119.167023 72.490715,122.999901 
	C72.449669,126.750732 73.880753,128.589127 78.000412,128.561203 
	C97.999496,128.425613 118.000504,128.425629 137.999588,128.561203 
	C142.119247,128.589127 143.513992,126.750420 143.511139,122.999992 
	C143.490433,95.666672 143.490433,68.333328 143.511154,41.000008 
	C143.513992,37.249580 142.124146,35.144558 137.997253,35.464565 
	C135.512192,35.657257 133.000000,35.500000 130.500000,35.500000 
"/>
<path fill="none" opacity="1.000000" stroke="#000000" stroke-linecap="round" stroke-linejoin="round" stroke-width="4.000000"
	d="
M130.000000,35.500000 
	C129.150879,33.728706 129.622299,31.837366 129.494293,30.000517 
	C128.415756,28.670279 126.889503,28.919134 125.502083,29.026857 
	C121.178268,29.362570 117.535629,28.678225 114.930496,24.543795 
	C112.235535,20.266800 104.212852,20.178156 101.599556,24.066902 
	C98.513290,28.659464 94.433632,29.566118 89.499336,29.005817 
	C88.625687,28.906614 87.747063,28.901989 86.500000,30.549061 
	C86.500000,33.333332 86.500000,37.166668 86.500000,41.250000 
	C101.000000,41.250000 115.000000,41.250000 129.123413,41.250000 
	C129.440414,39.351387 129.720215,37.675694 130.000000,36.000000 
"/>
<path fill="none" opacity="1.000000" stroke="#000000" stroke-linecap="round" stroke-linejoin="round" stroke-width="4.000000"
	d="
M102.500000,110.000000 
	C112.500000,110.820541 122.500000,110.820541 132.500000,110.000000 
"/>
<path fill="none" opacity="1.000000" stroke="#000000" stroke-linecap="round" stroke-linejoin="round" stroke-width="4.000000"
	d="
M132.500000,55.000000 
	C122.500000,54.179459 112.500000,54.179459 102.500000,55.000000 
"/>
<path fill="none" opacity="1.000000" stroke="#000000" stroke-linecap="round" stroke-linejoin="round" stroke-width="4.000000"
	d="
M131.500000,91.500000 
	C121.835457,91.789658 112.150475,90.894318 102.500000,92.000000 
"/>
<path fill="none" opacity="1.000000" stroke="#000000" stroke-linecap="round" stroke-linejoin="round" stroke-width="4.000000"
	d="
M102.500000,73.000000 
	C112.150475,74.105682 121.835457,73.210342 131.500000,73.500000 
"/>
<path fill="none" opacity="1.000000" stroke="#000000" stroke-linecap="round" stroke-linejoin="round" stroke-width="3.000000"
	d="
M95.500000,69.000000 
	C91.658997,69.896545 91.264328,74.485588 88.002991,76.003296 
	C86.258728,74.862610 84.583069,73.666901 84.000000,71.500000 
"/>
<path fill="none" opacity="1.000000" stroke="#000000" stroke-linecap="round" stroke-linejoin="round" stroke-width="3.000000"
	d="
M94.000000,50.999996 
	C92.033272,53.361061 90.066551,55.722126 88.109444,58.071640 
	C86.258728,56.862614 84.583069,55.666901 84.000000,53.500000 
"/>
<path fill="none" opacity="1.000000" stroke="#000000" stroke-linecap="round" stroke-linejoin="round" stroke-width="3.000000"
	d="
M93.500000,88.000000 
	C92.346420,90.623108 90.306931,92.434128 87.935036,94.045776 
	C85.749100,93.881981 84.648590,92.449226 84.000000,90.500000 
"/>
<path fill="none" opacity="1.000000" stroke="#000000" stroke-linecap="round" stroke-linejoin="round" stroke-width="3.000000"
	d="
M94.000000,106.500000 
	C92.041519,108.704422 90.083031,110.908836 88.142395,113.093163 
	C86.258728,111.862610 84.583069,110.666901 84.000000,108.500000 
"/>
</svg>