<svg version="1.1" id="Layer_1" xmlns="http://www.w3.org/2000/svg" xmlns:xlink="http://www.w3.org/1999/xlink" x="0px" y="0px"
	 width="100%" viewBox="0 0 512 512" enable-background="new 0 0 512 512" xml:space="preserve">
<path fill="#74ADFA" opacity="1.000000" stroke="none" 
	d="
M513.000000,243.000000 
	C513.000000,312.020905 513.000000,381.041779 512.684692,450.209167 
	C510.594177,455.131470 509.089996,460.029694 506.998169,464.662567 
	C496.138336,488.714661 478.146942,504.456421 452.407288,511.079376 
	C451.812805,511.232330 451.463623,512.338440 451.000000,513.000000 
	C381.979095,513.000000 312.958221,513.000000 243.518753,512.659058 
	C244.330231,510.782013 245.427872,509.113708 246.809814,507.729187 
	C274.657471,479.829346 302.560852,451.984985 330.361237,424.038208 
	C332.275177,422.114166 333.469208,419.473938 335.461548,417.092133 
	C342.586273,417.011200 349.249512,417.108093 355.908264,416.976776 
	C368.979309,416.718964 382.066833,416.654602 395.110321,415.881775 
	C402.945740,415.417511 407.500610,409.058868 408.127380,401.307465 
	C408.746796,393.647369 401.566772,386.323029 395.209686,386.003540 
	C387.139923,385.597992 379.068695,385.221893 371.057709,384.503784 
	C372.020996,383.007050 372.809631,381.724670 373.844818,380.688629 
	C418.733368,335.761627 463.637787,290.850494 508.582916,245.980133 
	C509.817017,244.748093 511.517181,243.982895 513.000000,243.000000 
z"/>
<path fill="#7ED0FB" opacity="1.000000" stroke="none" 
	d="
M311.000000,1.000004 
	C325.687561,1.000000 340.375122,1.000000 355.521454,1.363193 
	C354.592438,3.711965 353.465271,5.957870 351.779388,7.645695 
	C276.598450,82.913231 201.371979,158.135254 126.127731,233.339508 
	C123.730820,235.735153 121.250404,237.966049 121.586624,241.906250 
	C110.828445,242.368759 106.486282,247.468689 105.480469,260.010925 
	C103.278419,261.322083 101.191956,262.383057 99.615067,263.955170 
	C68.425468,295.050537 37.305088,326.215302 6.120584,357.315765 
	C4.650806,358.781586 2.717454,359.782532 1.000000,361.000000 
	C1.000000,334.645782 1.000000,308.291534 1.340897,281.418518 
	C3.334387,279.553314 5.119640,278.339691 6.620208,276.841034 
	C45.191158,238.319199 83.729126,199.764343 122.291122,161.233536 
	C123.808250,159.717636 125.505707,158.382202 127.427673,157.084412 
	C132.323898,161.799057 136.904694,166.398880 141.500870,170.983307 
	C148.638062,178.102234 157.341873,178.134720 164.434464,171.048721 
	C184.469574,151.032333 204.303375,130.808868 224.622391,111.085136 
	C232.086548,103.839645 234.985565,96.129295 228.114655,85.814011 
	C229.628143,84.059547 230.946045,82.567017 232.350830,81.161301 
	C257.345245,56.150303 282.362854,31.162426 307.320801,6.115090 
	C308.784302,4.646332 309.784302,2.715702 311.000000,1.000004 
z"/>
<path fill="#7CCAFB" opacity="1.000000" stroke="none" 
	d="
M121.997665,241.833405 
	C121.250404,237.966049 123.730820,235.735153 126.127731,233.339508 
	C201.371979,158.135254 276.598450,82.913231 351.779388,7.645695 
	C353.465271,5.957870 354.592438,3.711965 355.990112,1.363193 
	C380.020905,1.000000 404.041779,1.000000 428.521484,1.363190 
	C427.712402,3.592049 426.703857,5.716449 425.138672,7.285542 
	C386.383698,46.137245 347.562500,84.922874 308.794556,123.761681 
	C307.317566,125.241348 306.253723,127.133430 304.533875,128.906097 
	C298.614471,128.985275 293.147339,128.779999 287.706390,129.068451 
	C283.714050,129.280121 279.625488,129.689621 275.808289,130.797882 
	C266.146667,133.602982 261.366547,147.309631 270.711121,156.971710 
	C267.401733,158.287399 263.852417,158.924881 261.705994,161.007950 
	C247.656403,174.642670 233.832809,188.514481 220.161942,202.529816 
	C218.430878,204.304520 218.020309,207.367279 216.598129,209.906204 
	C212.625229,211.662842 208.311951,212.572540 205.604691,215.161560 
	C192.486633,227.706787 179.797775,240.700897 166.960953,253.540070 
	C162.395874,258.105988 157.842499,262.683594 152.847626,267.693298 
	C146.035339,260.759186 139.778549,253.850677 132.895142,247.636261 
	C129.931732,244.960861 125.669716,243.723877 121.997665,241.833405 
z"/>
<path fill="#75B2FA" opacity="1.000000" stroke="none" 
	d="
M513.000000,242.531342 
	C511.517181,243.982895 509.817017,244.748093 508.582916,245.980133 
	C463.637787,290.850494 418.733368,335.761627 373.844818,380.688629 
	C372.809631,381.724670 372.020996,383.007050 370.594116,384.576324 
	C342.046600,384.929718 314.022339,384.881287 286.057739,384.503571 
	C287.373749,382.654144 288.515930,381.020020 289.903137,379.630554 
	C318.329742,351.159119 346.794342,322.725586 375.204926,294.238190 
	C376.680542,292.758575 377.743073,290.866974 379.458344,289.092377 
	C382.406982,289.011017 384.895264,288.993683 387.383484,288.999939 
	C396.636108,289.023132 404.394318,286.465515 408.495575,276.940857 
	C410.344513,275.626587 411.978424,274.485931 413.366852,273.099457 
	C444.877014,241.633026 476.350250,210.129623 507.880432,178.683273 
	C509.349884,177.217773 511.282898,176.217148 513.000000,175.000000 
	C513.000000,197.354233 513.000000,219.708450 513.000000,242.531342 
z"/>
<path fill="#76B7FB" opacity="1.000000" stroke="none" 
	d="
M378.997955,289.167236 
	C377.743073,290.866974 376.680542,292.758575 375.204926,294.238190 
	C346.794342,322.725586 318.329742,351.159119 289.903137,379.630554 
	C288.515930,381.020020 287.373749,382.654144 285.636353,384.576080 
	C282.004028,385.580902 278.724823,385.815369 275.725769,386.856750 
	C267.073273,389.861206 265.437958,396.932068 265.503723,405.058716 
	C264.004791,406.023590 262.720490,406.814301 261.682220,407.851379 
	C228.092255,441.400940 194.518036,474.966248 160.987900,508.575531 
	C159.753693,509.812653 158.985413,511.514648 158.000000,513.000000 
	C140.645767,513.000000 123.291542,513.000000 105.478531,512.636841 
	C106.408600,510.286987 107.536911,508.040131 109.223816,506.351166 
	C179.741699,435.745819 250.313934,365.194702 320.843262,294.600769 
	C322.440979,293.001617 323.623047,290.987213 325.462494,289.092163 
	C343.616669,289.067627 361.307312,289.117432 378.997955,289.167236 
z"/>
<path fill="#77B9FB" opacity="1.000000" stroke="none" 
	d="
M513.000000,63.000000 
	C513.000000,81.687561 513.000000,100.375122 512.636841,119.541229 
	C510.758331,120.937431 508.983307,121.594833 507.765228,122.810349 
	C464.719849,165.765869 421.716461,208.763565 378.775177,251.823135 
	C377.478577,253.123306 376.907593,255.147110 375.534729,256.906372 
	C353.047089,256.930603 331.022980,256.881989 309.011047,256.480652 
	C310.324707,254.276123 311.388123,252.186935 312.962799,250.607529 
	C344.331696,219.144592 375.759644,187.740524 407.175598,156.324539 
	C439.543213,123.956909 471.901398,91.579826 504.311707,59.254993 
	C505.663788,57.906502 507.502716,57.046173 509.453461,56.144402 
	C510.861389,58.553585 511.930695,60.776791 513.000000,63.000000 
z"/>
<path fill="#7AC4FB" opacity="1.000000" stroke="none" 
	d="
M216.997955,209.833267 
	C218.020309,207.367279 218.430878,204.304520 220.161942,202.529816 
	C233.832809,188.514481 247.656403,174.642670 261.705994,161.007950 
	C263.852417,158.924881 267.401733,158.287399 271.045410,157.118225 
	C276.558502,158.503128 281.271942,160.449448 286.111115,160.840988 
	C294.030396,161.481735 302.031464,161.110825 309.940125,161.495987 
	C308.504456,163.467224 307.242065,165.224442 305.732483,166.734573 
	C208.309021,264.194580 110.860626,361.629730 13.456406,459.108978 
	C11.373078,461.193878 9.777563,463.766235 7.620108,465.939087 
	C5.855652,461.443695 4.484673,457.099121 2.939236,452.817505 
	C2.671254,452.075073 1.665167,451.599060 0.999997,451.000000 
	C1.000000,442.645782 1.000000,434.291534 1.340899,425.418518 
	C3.337754,423.549927 5.126428,422.333008 6.630298,420.830933 
	C47.405815,380.104034 88.120277,339.315826 129.000336,298.694244 
	C130.984024,296.723145 134.379272,296.172577 137.425919,295.084259 
	C138.548447,296.037079 139.452515,296.795807 140.162079,297.706116 
	C146.953201,306.418640 158.413483,305.720795 166.121368,297.675598 
	C185.941971,276.987610 206.469193,256.975220 226.782806,236.761932 
	C231.660034,231.908829 233.318298,226.459824 231.033722,219.881668 
	C228.714615,213.204163 223.676071,210.389328 216.997955,209.833267 
z"/>
<path fill="#77B9FB" opacity="1.000000" stroke="none" 
	d="
M324.998962,289.166473 
	C323.623047,290.987213 322.440979,293.001617 320.843262,294.600769 
	C250.313934,365.194702 179.741699,435.745819 109.223816,506.351166 
	C107.536911,508.040131 106.408600,510.286987 105.009872,512.636841 
	C91.312439,513.000000 77.624878,513.000000 63.785969,512.713013 
	C62.075809,511.655853 60.516994,510.885742 58.976814,509.745117 
	C60.129932,507.616791 60.998791,505.595703 62.439850,504.141724 
	C77.305542,489.143188 92.291092,474.263519 107.187035,459.294830 
	C118.204163,448.223907 129.138138,437.070221 140.421722,426.082336 
	C148.343506,433.849976 155.579300,434.372284 164.160690,428.115082 
	C165.579041,427.726044 167.050537,427.368164 167.969009,426.454437 
	C187.509018,407.014526 207.011902,387.536957 226.419815,367.965332 
	C227.685547,366.688934 228.130188,364.598297 229.109711,362.548065 
	C234.248932,352.575531 233.039474,347.308105 224.115250,338.815430 
	C237.946060,324.742493 251.630142,310.980133 265.292175,297.195923 
	C268.441315,294.018585 273.072937,291.467102 270.480774,285.666534 
	C270.427094,285.546387 270.888763,285.195892 271.443054,285.099182 
	C276.553009,286.496796 281.292572,288.624817 286.114014,288.830261 
	C299.056946,289.381683 312.034912,289.110779 324.998962,289.166473 
z"/>
<path fill="#7AC3FB" opacity="1.000000" stroke="none" 
	d="
M304.997345,128.833328 
	C306.253723,127.133430 307.317566,125.241348 308.794556,123.761681 
	C347.562500,84.922874 386.383698,46.137245 425.138672,7.285542 
	C426.703857,5.716449 427.712402,3.592049 428.990143,1.363190 
	C436.020966,1.000000 443.041901,1.000000 450.209259,1.315686 
	C450.691742,1.992454 450.977478,2.598001 451.371246,2.679103 
	C463.198273,5.114984 473.526581,10.651434 482.990173,18.241047 
	C481.326080,20.862894 479.999512,23.409389 478.065369,25.350451 
	C445.342590,58.190723 412.535614,90.947083 379.790924,123.765556 
	C378.315460,125.244308 377.252533,127.134628 375.534058,128.906204 
	C351.712830,128.930542 328.355103,128.881943 304.997345,128.833328 
z"/>
<path fill="#75B2FA" opacity="1.000000" stroke="none" 
	d="
M158.468658,513.000000 
	C158.985413,511.514648 159.753693,509.812653 160.987900,508.575531 
	C194.518036,474.966248 228.092255,441.400940 261.682220,407.851379 
	C262.720490,406.814301 264.004791,406.023590 265.660095,405.388550 
	C267.118866,407.290619 267.907196,409.073730 269.098907,410.525787 
	C272.999207,415.278198 278.378448,416.922272 284.257202,416.970490 
	C301.170227,417.109192 318.084320,417.111115 334.998016,417.166779 
	C333.469208,419.473938 332.275177,422.114166 330.361237,424.038208 
	C302.560852,451.984985 274.657471,479.829346 246.809814,507.729187 
	C245.427872,509.113708 244.330231,510.782013 243.050095,512.659058 
	C214.979111,513.000000 186.958206,513.000000 158.468658,513.000000 
z"/>
<path fill="#7CCAFB" opacity="1.000000" stroke="none" 
	d="
M137.117188,294.960510 
	C134.379272,296.172577 130.984024,296.723145 129.000336,298.694244 
	C88.120277,339.315826 47.405815,380.104034 6.630298,420.830933 
	C5.126428,422.333008 3.337754,423.549927 1.340899,424.949860 
	C1.000000,403.979095 1.000000,382.958221 1.000000,361.468658 
	C2.717454,359.782532 4.650806,358.781586 6.120584,357.315765 
	C37.305088,326.215302 68.425468,295.050537 99.615067,263.955170 
	C101.191956,262.383057 103.278419,261.322083 105.637665,260.345459 
	C108.319786,263.833405 110.128624,267.341675 112.731705,270.100586 
	C120.696304,278.541870 128.966110,286.695160 137.117188,294.960510 
z"/>
<path fill="#76B5FA" opacity="1.000000" stroke="none" 
	d="
M375.998291,256.833557 
	C376.907593,255.147110 377.478577,253.123306 378.775177,251.823135 
	C421.716461,208.763565 464.719849,165.765869 507.765228,122.810349 
	C508.983307,121.594833 510.758331,120.937431 512.636841,120.009888 
	C513.000000,138.020889 513.000000,156.041794 513.000000,174.531342 
	C511.282898,176.217148 509.349884,177.217773 507.880432,178.683273 
	C476.350250,210.129623 444.877014,241.633026 413.366852,273.099457 
	C411.978424,274.485931 410.344513,275.626587 408.422791,276.498840 
	C407.938721,264.025482 405.302734,260.311890 393.622559,258.053436 
	C387.883728,256.943787 381.881378,257.197052 375.998291,256.833557 
z"/>
<path fill="#80D8FB" opacity="1.000000" stroke="none" 
	d="
M127.119141,156.962677 
	C125.505707,158.382202 123.808250,159.717636 122.291122,161.233536 
	C83.729126,199.764343 45.191158,238.319199 6.620208,276.841034 
	C5.119640,278.339691 3.334387,279.553314 1.340897,280.949890 
	C1.000000,264.979095 1.000000,248.958206 1.363187,232.458771 
	C3.590916,230.713470 5.713240,229.705353 7.281949,228.141800 
	C38.471889,197.054123 69.588707,165.893112 100.764931,134.791626 
	C102.243927,133.316177 104.134613,132.253418 105.909225,131.376190 
	C107.502281,134.519119 108.573341,137.684616 110.624245,139.971313 
	C115.890594,145.843140 121.591774,151.324951 127.119141,156.962677 
z"/>
<path fill="#83E2FB" opacity="1.000000" stroke="none" 
	d="
M148.000000,1.000000 
	C158.354233,1.000000 168.708450,1.000000 179.521469,1.363191 
	C179.062195,3.242077 178.404831,5.018056 177.188644,6.236073 
	C120.194031,63.316555 63.159042,120.356750 6.061086,177.333832 
	C4.771419,178.620773 2.704410,179.128693 1.000000,180.000000 
	C1.000000,169.645767 1.000000,159.291550 1.349845,148.419846 
	C3.607762,146.626877 5.790126,145.626266 7.383980,144.035858 
	C53.032757,98.486122 98.635796,52.890472 144.168991,7.225235 
	C145.843185,5.546195 146.740585,3.092619 148.000000,1.000000 
z"/>
<path fill="#84E7FC" opacity="1.000000" stroke="none" 
	d="
M147.531342,1.000000 
	C146.740585,3.092619 145.843185,5.546195 144.168991,7.225235 
	C98.635796,52.890472 53.032757,98.486122 7.383980,144.035858 
	C5.790126,145.626266 3.607762,146.626877 1.349845,147.951187 
	C1.000000,134.645767 1.000000,121.291542 1.363190,107.458771 
	C3.240017,106.064240 5.012525,105.407867 6.229535,104.194389 
	C38.985447,71.533279 71.698608,38.829201 104.340019,6.053735 
	C105.623817,4.764669 106.130966,2.702136 107.000000,1.000000 
	C120.354225,1.000000 133.708450,1.000000 147.531342,1.000000 
z"/>
<path fill="#82DFFB" opacity="1.000000" stroke="none" 
	d="
M1.000000,180.468658 
	C2.704410,179.128693 4.771419,178.620773 6.061086,177.333832 
	C63.159042,120.356750 120.194031,63.316555 177.188644,6.236073 
	C178.404831,5.018056 179.062195,3.242077 179.990128,1.363191 
	C188.354233,1.000000 196.708466,1.000000 205.481262,1.340904 
	C204.785889,3.101855 203.805496,4.655359 202.538879,5.922819 
	C136.977219,71.527901 71.395752,137.113190 5.776608,202.660751 
	C4.423096,204.012787 2.602627,204.897354 1.000000,206.000000 
	C1.000000,197.645767 1.000000,189.291534 1.000000,180.468658 
z"/>
<path fill="#81DCFB" opacity="1.000000" stroke="none" 
	d="
M1.000000,206.468658 
	C2.602627,204.897354 4.423096,204.012787 5.776608,202.660751 
	C71.395752,137.113190 136.977219,71.527901 202.538879,5.922819 
	C203.805496,4.655359 204.785889,3.101855 205.949905,1.340904 
	C211.688034,1.000000 217.376083,1.000000 223.481964,1.340901 
	C222.552826,3.334890 221.338455,5.120387 219.839432,6.621633 
	C185.772949,40.738735 151.657028,74.806526 117.640038,108.972847 
	C116.018692,110.601318 115.221291,113.050140 113.904037,115.438202 
	C107.850739,119.135338 105.718773,124.482010 105.833572,130.998474 
	C104.134613,132.253418 102.243927,133.316177 100.764931,134.791626 
	C69.588707,165.893112 38.471889,197.054123 7.281949,228.141800 
	C5.713240,229.705353 3.590916,230.713470 1.363187,231.990112 
	C1.000000,223.645767 1.000000,215.291534 1.000000,206.468658 
z"/>
<path fill="#80D7FB" opacity="1.000000" stroke="none" 
	d="
M246.000000,1.000000 
	C256.687561,1.000000 267.375122,1.000000 278.481232,1.340895 
	C277.788086,3.099628 276.809509,4.650448 275.545349,5.916022 
	C234.662918,46.845268 193.762527,87.756645 152.813660,128.619400 
	C151.085953,130.343475 148.869263,131.577515 146.572876,132.915558 
	C141.496780,127.899574 136.728180,123.007889 132.100983,117.800453 
	C133.775421,115.542656 135.131607,113.424095 136.867630,111.684601 
	C171.882584,76.599960 206.950958,41.568653 241.959137,6.477270 
	C243.543884,4.888750 244.663651,2.836338 246.000000,1.000000 
z"/>
<path fill="#86ECFC" opacity="1.000000" stroke="none" 
	d="
M106.531342,1.000000 
	C106.130966,2.702136 105.623817,4.764669 104.340019,6.053735 
	C71.698608,38.829201 38.985447,71.533279 6.229535,104.194389 
	C5.012525,105.407867 3.240017,106.064240 1.363190,106.990112 
	C1.000000,94.312439 1.000000,81.624878 1.297982,68.593506 
	C3.117226,67.613113 5.018512,67.359535 6.103389,66.283134 
	C25.925020,46.616211 45.685719,26.887167 65.317322,7.030883 
	C66.764427,5.567215 67.131050,3.035290 68.000000,1.000000 
	C80.687561,1.000000 93.375122,1.000000 106.531342,1.000000 
z"/>
<path fill="#7FD2FB" opacity="1.000000" stroke="none" 
	d="
M146.880371,133.039841 
	C148.869263,131.577515 151.085953,130.343475 152.813660,128.619400 
	C193.762527,87.756645 234.662918,46.845268 275.545349,5.916022 
	C276.809509,4.650448 277.788086,3.099628 278.949890,1.340895 
	C289.354218,1.000000 299.708466,1.000000 310.531342,1.000004 
	C309.784302,2.715702 308.784302,4.646332 307.320801,6.115090 
	C282.362854,31.162426 257.345245,56.150303 232.350830,81.161301 
	C230.946045,82.567017 229.628143,84.059547 227.780609,85.664597 
	C222.351761,81.870178 216.573059,80.282120 211.029678,83.220634 
	C205.947220,85.914818 201.321701,89.781250 197.153137,93.811966 
	C191.752365,99.034142 187.063873,104.987297 181.908325,110.475060 
	C181.166473,111.264732 179.528397,111.212440 178.585922,111.472343 
	C177.944534,112.955139 177.655090,115.320946 176.638748,115.691139 
	C171.148087,117.691078 169.468094,123.198479 165.711395,126.724861 
	C164.964981,127.425529 163.674896,127.512894 162.713120,128.027969 
	C161.774628,128.530579 160.666183,129.033768 160.100327,129.858002 
	C157.907379,133.052307 155.901047,136.374741 153.503143,140.157547 
	C150.672180,137.115005 148.776276,135.077423 146.880371,133.039841 
z"/>
<path fill="#81DAFB" opacity="1.000000" stroke="none" 
	d="
M245.531433,1.000000 
	C244.663651,2.836338 243.543884,4.888750 241.959137,6.477270 
	C206.950958,41.568653 171.882584,76.599960 136.867630,111.684601 
	C135.131607,113.424095 133.775421,115.542656 131.768768,117.651230 
	C126.148201,113.054199 120.186874,113.493423 114.040176,115.116936 
	C115.221291,113.050140 116.018692,110.601318 117.640038,108.972847 
	C151.657028,74.806526 185.772949,40.738735 219.839432,6.621633 
	C221.338455,5.120387 222.552826,3.334890 223.949890,1.340901 
	C231.020950,1.000000 238.041901,1.000000 245.531433,1.000000 
z"/>
<path fill="#000000" opacity="1.000000" stroke="none" 
	d="
M483.045013,17.883966 
	C473.526581,10.651434 463.198273,5.114984 451.371246,2.679103 
	C450.977478,2.598001 450.691742,1.992454 450.677826,1.315686 
	C471.593475,1.000000 492.186981,1.000000 513.000000,1.000000 
	C513.000000,21.353703 513.000000,41.708191 513.000000,62.531342 
	C511.930695,60.776791 510.861389,58.553585 509.401306,55.754711 
	C504.593933,39.796371 494.868225,28.110012 483.045013,17.883966 
z"/>
<path fill="#000000" opacity="1.000000" stroke="none" 
	d="
M451.468658,513.000000 
	C451.463623,512.338440 451.812805,511.232330 452.407288,511.079376 
	C478.146942,504.456421 496.138336,488.714661 506.998169,464.662567 
	C509.089996,460.029694 510.594177,455.131470 512.684692,450.677826 
	C513.000000,471.593475 513.000000,492.186981 513.000000,513.000000 
	C492.646301,513.000000 472.291809,513.000000 451.468658,513.000000 
z"/>
<path fill="#000000" opacity="1.000000" stroke="none" 
	d="
M58.958179,510.115631 
	C60.516994,510.885742 62.075809,511.655853 63.317310,512.713013 
	C42.406513,513.000000 21.813025,513.000000 1.000000,513.000000 
	C1.000000,492.646301 1.000000,472.291809 0.999997,451.468658 
	C1.665167,451.599060 2.671254,452.075073 2.939236,452.817505 
	C4.484673,457.099121 5.855652,461.443695 7.645613,466.305481 
	C11.793191,476.169983 17.881336,483.866394 25.311138,490.975677 
	C34.857159,500.745239 46.034737,506.962158 58.958179,510.115631 
z"/>
<path fill="#000000" opacity="1.000000" stroke="none" 
	d="
M1.000000,63.000000 
	C1.000000,42.406513 1.000000,21.813030 1.000000,1.000000 
	C21.353703,1.000000 41.708191,1.000000 62.855865,1.315450 
	C63.172295,2.067279 62.751270,2.793967 62.210674,2.897732 
	C47.285549,5.762560 34.696827,13.307296 24.097717,23.677422 
	C13.706607,33.844040 6.696226,46.401680 2.949384,60.620907 
	C2.711794,61.522556 1.668479,62.211891 1.000000,63.000000 
z"/>
<path fill="#87F0FC" opacity="1.000000" stroke="none" 
	d="
M1.000000,63.416664 
	C1.668479,62.211891 2.711794,61.522556 2.949384,60.620907 
	C6.696226,46.401680 13.706607,33.844040 24.097717,23.677422 
	C34.696827,13.307296 47.285549,5.762560 62.210674,2.897732 
	C62.751270,2.793967 63.172295,2.067279 63.324524,1.315450 
	C64.388893,1.000000 65.777779,1.000000 67.583336,1.000000 
	C67.131050,3.035290 66.764427,5.567215 65.317322,7.030883 
	C45.685719,26.887167 25.925020,46.616211 6.103389,66.283134 
	C5.018512,67.359535 3.117226,67.613113 1.297982,68.124847 
	C1.000000,66.611115 1.000000,65.222221 1.000000,63.416664 
z"/>
<path fill="#000000" opacity="1.000000" stroke="none" 
	d="
M335.461548,417.092133 
	C318.084320,417.111115 301.170227,417.109192 284.257202,416.970490 
	C278.378448,416.922272 272.999207,415.278198 269.098907,410.525787 
	C267.907196,409.073730 267.118866,407.290619 265.989441,405.329254 
	C265.437958,396.932068 267.073273,389.861206 275.725769,386.856750 
	C278.724823,385.815369 282.004028,385.580902 285.576660,384.905365 
	C314.022339,384.881287 342.046600,384.929718 370.534485,384.905640 
	C379.068695,385.221893 387.139923,385.597992 395.209686,386.003540 
	C401.566772,386.323029 408.746796,393.647369 408.127380,401.307465 
	C407.500610,409.058868 402.945740,415.417511 395.110321,415.881775 
	C382.066833,416.654602 368.979309,416.718964 355.908264,416.976776 
	C349.249512,417.108093 342.586273,417.011200 335.461548,417.092133 
z"/>
<path fill="#000000" opacity="1.000000" stroke="none" 
	d="
M113.904037,115.438202 
	C120.186874,113.493423 126.148201,113.054199 131.627380,117.966972 
	C136.728180,123.007889 141.496780,127.899574 146.572876,132.915558 
	C148.776276,135.077423 150.672180,137.115005 153.503143,140.157547 
	C155.901047,136.374741 157.907379,133.052307 160.100327,129.858002 
	C160.666183,129.033768 161.774628,128.530579 162.713120,128.027969 
	C163.674896,127.512894 164.964981,127.425529 165.711395,126.724861 
	C169.468094,123.198479 171.148087,117.691078 176.638748,115.691139 
	C177.655090,115.320946 177.944534,112.955139 178.585922,111.472343 
	C179.528397,111.212440 181.166473,111.264732 181.908325,110.475060 
	C187.063873,104.987297 191.752365,99.034142 197.153137,93.811966 
	C201.321701,89.781250 205.947220,85.914818 211.029678,83.220634 
	C216.573059,80.282120 222.351761,81.870178 227.625458,85.966919 
	C234.985565,96.129295 232.086548,103.839645 224.622391,111.085136 
	C204.303375,130.808868 184.469574,151.032333 164.434464,171.048721 
	C157.341873,178.134720 148.638062,178.102234 141.500870,170.983307 
	C136.904694,166.398880 132.323898,161.799057 127.427673,157.084412 
	C121.591774,151.324951 115.890594,145.843140 110.624245,139.971313 
	C108.573341,137.684616 107.502281,134.519119 105.909233,131.376190 
	C105.718773,124.482010 107.850739,119.135338 113.904037,115.438202 
z"/>
<path fill="#000000" opacity="1.000000" stroke="none" 
	d="
M137.425919,295.084259 
	C128.966110,286.695160 120.696304,278.541870 112.731705,270.100586 
	C110.128624,267.341675 108.319786,263.833405 105.990509,260.333313 
	C106.486282,247.468689 110.828445,242.368759 121.586624,241.906250 
	C125.669716,243.723877 129.931732,244.960861 132.895142,247.636261 
	C139.778549,253.850677 146.035339,260.759186 152.847626,267.693298 
	C157.842499,262.683594 162.395874,258.105988 166.960953,253.540070 
	C179.797775,240.700897 192.486633,227.706787 205.604691,215.161560 
	C208.311951,212.572540 212.625229,211.662842 216.598114,209.906204 
	C223.676071,210.389328 228.714615,213.204163 231.033722,219.881668 
	C233.318298,226.459824 231.660034,231.908829 226.782806,236.761932 
	C206.469193,256.975220 185.941971,276.987610 166.121368,297.675598 
	C158.413483,305.720795 146.953201,306.418640 140.162079,297.706116 
	C139.452515,296.795807 138.548447,296.037079 137.425919,295.084259 
z"/>
<path fill="#000000" opacity="1.000000" stroke="none" 
	d="
M304.533875,128.906097 
	C328.355103,128.881943 351.712830,128.930542 375.996765,128.981400 
	C383.165497,129.322922 389.442566,129.361130 395.642639,130.071594 
	C405.094269,131.154648 410.949341,142.268951 407.052582,150.947876 
	C403.496216,158.868591 396.560120,160.750565 388.961914,160.935654 
	C376.646301,161.235672 364.320374,161.111862 351.535278,161.093658 
	C337.380524,161.069107 323.689270,161.117874 309.998047,161.166641 
	C302.031464,161.110825 294.030396,161.481735 286.111115,160.840988 
	C281.271942,160.449448 276.558502,158.503128 271.454285,157.108612 
	C261.366547,147.309631 266.146667,133.602982 275.808289,130.797882 
	C279.625488,129.689621 283.714050,129.280121 287.706390,129.068451 
	C293.147339,128.779999 298.614471,128.985275 304.533875,128.906097 
z"/>
<path fill="#000000" opacity="1.000000" stroke="none" 
	d="
M375.534729,256.906372 
	C381.881378,257.197052 387.883728,256.943787 393.622559,258.053436 
	C405.302734,260.311890 407.938721,264.025482 408.093384,276.557922 
	C404.394318,286.465515 396.636108,289.023132 387.383484,288.999939 
	C384.895264,288.993683 382.406982,289.011017 379.458344,289.092407 
	C361.307312,289.117432 343.616669,289.067627 325.462494,289.092163 
	C312.034912,289.110779 299.056946,289.381683 286.114014,288.830261 
	C281.292572,288.624817 276.553009,286.496796 271.302368,284.778809 
	C266.885315,280.992218 264.921112,276.697144 265.792053,271.654236 
	C267.755676,260.284424 274.647552,257.719360 284.569733,257.092438 
	C292.685852,256.579651 300.853882,256.888672 308.998901,256.833374 
	C331.022980,256.881989 353.047089,256.930603 375.534729,256.906372 
z"/>
<path fill="#78BDFB" opacity="1.000000" stroke="none" 
	d="
M309.011047,256.480652 
	C300.853882,256.888672 292.685852,256.579651 284.569733,257.092438 
	C274.647552,257.719360 267.755676,260.284424 265.792053,271.654236 
	C264.921112,276.697144 266.885315,280.992218 270.969299,284.632507 
	C270.888763,285.195892 270.427094,285.546387 270.480774,285.666534 
	C273.072937,291.467102 268.441315,294.018585 265.292175,297.195923 
	C251.630142,310.980133 237.946060,324.742493 223.696289,338.761719 
	C215.684006,336.666718 209.689301,338.517883 204.155869,344.199554 
	C188.722672,360.046204 172.948120,375.560455 157.299469,391.197083 
	C155.924866,392.570648 154.485352,393.879303 153.647507,394.675171 
	C147.556656,388.972443 141.758545,383.543793 136.163940,377.847443 
	C137.865707,376.265656 139.444290,375.031921 140.850739,373.625977 
	C210.102982,304.400024 279.344269,235.163116 348.551697,165.892410 
	C349.913269,164.529602 350.859039,162.751419 351.998779,161.166992 
	C364.320374,161.111862 376.646301,161.235672 388.961914,160.935654 
	C396.560120,160.750565 403.496216,158.868591 407.052582,150.947876 
	C410.949341,142.268951 405.094269,131.154648 395.642639,130.071594 
	C389.442566,129.361130 383.165497,129.322922 376.460205,128.908447 
	C377.252533,127.134628 378.315460,125.244308 379.790924,123.765556 
	C412.535614,90.947083 445.342590,58.190723 478.065369,25.350451 
	C479.999512,23.409389 481.326080,20.862894 482.990173,18.241047 
	C494.868225,28.110012 504.593933,39.796371 509.062683,55.568733 
	C507.502716,57.046173 505.663788,57.906502 504.311707,59.254993 
	C471.901398,91.579826 439.543213,123.956909 407.175598,156.324539 
	C375.759644,187.740524 344.331696,219.144592 312.962799,250.607529 
	C311.388123,252.186935 310.324707,254.276123 309.011047,256.480652 
z"/>
<path fill="#79C1FB" opacity="1.000000" stroke="none" 
	d="
M351.535278,161.093674 
	C350.859039,162.751419 349.913269,164.529602 348.551697,165.892410 
	C279.344269,235.163116 210.102982,304.400024 140.850739,373.625977 
	C139.444290,375.031921 137.865707,376.265656 135.851242,377.713257 
	C134.285370,376.793488 133.167343,375.799316 132.197006,374.677399 
	C125.701080,367.166748 110.340996,367.889526 106.377724,381.174866 
	C104.160881,388.605988 107.977966,394.049133 113.023880,399.256958 
	C111.751129,401.503479 110.766258,403.647400 109.203918,405.216248 
	C82.434608,432.096649 55.583389,458.895508 28.797430,485.759399 
	C27.320572,487.240601 26.255739,489.132599 24.999123,490.833405 
	C17.881336,483.866394 11.793191,476.169983 7.980000,466.477600 
	C9.777563,463.766235 11.373078,461.193878 13.456406,459.108978 
	C110.860626,361.629730 208.309021,264.194580 305.732483,166.734573 
	C307.242065,165.224442 308.504456,163.467224 309.940125,161.495987 
	C323.689270,161.117874 337.380524,161.069107 351.535278,161.093674 
z"/>
<path fill="#000000" opacity="1.000000" stroke="none" 
	d="
M113.043022,398.886688 
	C107.977966,394.049133 104.160881,388.605988 106.377724,381.174866 
	C110.340996,367.889526 125.701080,367.166748 132.197006,374.677399 
	C133.167343,375.799316 134.285370,376.793488 135.647766,377.980957 
	C141.758545,383.543793 147.556656,388.972443 153.647507,394.675171 
	C154.485352,393.879303 155.924866,392.570648 157.299469,391.197083 
	C172.948120,375.560455 188.722672,360.046204 204.155869,344.199554 
	C209.689301,338.517883 215.684006,336.666718 223.541534,339.064301 
	C233.039474,347.308105 234.248932,352.575531 228.798645,362.680206 
	C225.632416,365.857849 222.925415,368.560272 220.228745,371.272980 
	C201.470062,390.143250 182.713531,409.015686 163.956299,427.887390 
	C155.579300,434.372284 148.343506,433.849976 140.289658,425.771606 
	C130.911011,416.516876 121.977020,407.701782 113.043022,398.886688 
z"/>
<path fill="#78BCFB" opacity="1.000000" stroke="none" 
	d="
M113.023880,399.256958 
	C121.977020,407.701782 130.911011,416.516876 139.977081,425.642700 
	C129.138138,437.070221 118.204163,448.223907 107.187035,459.294830 
	C92.291092,474.263519 77.305542,489.143188 62.439850,504.141724 
	C60.998791,505.595703 60.129932,507.616791 58.976810,509.745117 
	C46.034737,506.962158 34.857159,500.745239 25.311131,490.975677 
	C26.255739,489.132599 27.320572,487.240601 28.797430,485.759399 
	C55.583389,458.895508 82.434608,432.096649 109.203918,405.216248 
	C110.766258,403.647400 111.751129,401.503479 113.023880,399.256958 
z"/>
<path fill="#76B8FB" opacity="1.000000" stroke="none" 
	d="
M164.160706,428.115112 
	C182.713531,409.015686 201.470062,390.143250 220.228745,371.272980 
	C222.925415,368.560272 225.632416,365.857849 228.645721,363.018524 
	C228.130188,364.598297 227.685547,366.688934 226.419815,367.965332 
	C207.011902,387.536957 187.509018,407.014526 167.969009,426.454437 
	C167.050537,427.368164 165.579041,427.726044 164.160706,428.115112 
z"/>
</svg>